<?xml version="1.0" encoding="UTF-8"?>
<svg id="Layer_1" data-name="Layer 1" xmlns="http://www.w3.org/2000/svg" xmlns:xlink="http://www.w3.org/1999/xlink" viewBox="0 0 231.28 198.54">
  <defs>
    <style>
      .cls-1 {
        fill: #ecc383;
      }

      .cls-1, .cls-2, .cls-3, .cls-4 {
        stroke-width: 0px;
      }

      .cls-2 {
        fill: #003749;
      }

      .cls-3 {
        fill: url(#Nueva_muestra_de_degradado_4);
      }

      .cls-4 {
        fill: #fff;
      }
    </style>
    <linearGradient id="Nueva_muestra_de_degradado_4" data-name="Nueva muestra de degradado 4" x1="48.89" y1="68.68" x2="177.84" y2="68.68" gradientUnits="userSpaceOnUse">
      <stop offset="0" stop-color="#8c6c49"/>
      <stop offset="1" stop-color="#eac080"/>
    </linearGradient>
  </defs>
  <g>
    <g>
      <path class="cls-2" d="M24.55,150.22c-.68-.69-1.47-1.24-2.38-1.64-.9-.4-1.88-.6-2.91-.6s-2,.21-2.91.62c-.91.41-1.71.97-2.39,1.67-.68.7-1.22,1.51-1.61,2.44-.39.92-.59,1.89-.59,2.9v.16c-1.11.06-2.04.26-2.82.61-.77.35-1.4.81-1.89,1.37-.49.56-.85,1.22-1.07,1.96s-.34,1.53-.34,2.36v9.12h3.28v-9.12c0-.38.05-.74.15-1.08s.26-.65.48-.92.52-.5.87-.67.8-.3,1.33-.35v.33c0,1.03.2,2,.59,2.92.39.92.93,1.73,1.61,2.43s1.47,1.25,2.39,1.67c.91.41,1.88.62,2.91.62s2.01-.2,2.91-.6c.9-.4,1.7-.95,2.38-1.64.68-.69,1.22-1.5,1.61-2.44s.59-1.93.59-2.99v-3.73c0-1.05-.2-2.03-.59-2.96-.39-.93-.93-1.74-1.61-2.42ZM23.47,159.34c0,.61-.11,1.18-.33,1.71-.22.53-.52,1-.9,1.39-.38.4-.83.71-1.34.94-.51.23-1.06.35-1.65.35s-1.12-.12-1.63-.35-.96-.55-1.34-.94c-.39-.4-.69-.86-.9-1.39-.22-.53-.33-1.09-.33-1.68v-3.77c0-.59.11-1.14.33-1.67.22-.53.52-.99.9-1.39.39-.4.83-.71,1.34-.95.51-.24,1.05-.35,1.63-.35s1.13.12,1.65.35c.51.23.96.54,1.34.93.38.39.68.85.9,1.39.22.53.33,1.1.33,1.69v3.74Z"/>
      <rect class="cls-2" x="30.36" y="141.46" width="3.28" height="23.24"/>
      <path class="cls-2" d="M63.37,144.31c.16.15.33.27.54.35s.42.13.65.13c.46,0,.85-.16,1.18-.48s.48-.71.48-1.18c0-.23-.04-.45-.13-.65s-.2-.38-.35-.54-.33-.28-.53-.36-.42-.13-.65-.13-.45.04-.65.13-.38.21-.54.36-.28.33-.36.54-.13.42-.13.65.04.45.13.65.21.38.36.53Z"/>
      <path class="cls-2" d="M58.5,144.31c.16.15.33.27.54.35s.42.13.65.13.45-.04.65-.13.38-.2.54-.35.28-.33.36-.53.13-.42.13-.65-.04-.45-.13-.65-.21-.38-.36-.54-.33-.28-.54-.36-.42-.13-.65-.13-.45.04-.65.13-.38.21-.54.36-.28.33-.36.54-.13.42-.13.65.04.45.13.65.21.38.36.53Z"/>
      <path class="cls-2" d="M73.85,144.8c.23,0,.45-.04.65-.13s.38-.2.54-.35.28-.33.36-.53.13-.42.13-.65-.04-.45-.13-.65-.21-.38-.36-.54-.33-.28-.54-.36-.42-.13-.65-.13-.45.04-.65.13-.38.21-.53.36-.27.33-.35.54-.13.42-.13.65c0,.46.16.85.48,1.18s.71.48,1.18.48Z"/>
      <path class="cls-2" d="M77.56,144.31c.16.15.33.27.54.35.2.09.42.13.65.13.46,0,.86-.16,1.18-.48s.49-.71.49-1.18c0-.23-.04-.45-.13-.65s-.21-.38-.36-.54-.33-.28-.53-.36-.42-.13-.65-.13-.45.04-.65.13c-.2.09-.38.21-.54.36s-.28.33-.37.54-.13.42-.13.65.04.45.13.65.21.38.37.53Z"/>
      <path class="cls-2" d="M103.33,159.4c0,.28-.05.54-.16.79s-.26.46-.46.65c-.2.18-.42.33-.68.44-.26.11-.53.16-.82.16h-2.06v-13.48h-3.28v13.48h-4.18v-13.48h-3.28v13.48h-8v-13.48h-3.28v13.48h-7.5v-6.09c0-1.02-.2-1.98-.6-2.88-.4-.9-.94-1.68-1.62-2.35-.68-.67-1.47-1.19-2.38-1.58-.91-.39-1.88-.58-2.92-.58s-1.99.19-2.9.57c-.91.38-1.7.91-2.38,1.58-.67.67-1.21,1.46-1.6,2.37s-.59,1.9-.59,2.97v5.99h-5.22v-5.7c0-1.25-.21-2.36-.63-3.33-.42-.97-1.09-1.78-1.99-2.44-.9-.66-2.06-1.16-3.48-1.5-1.42-.34-3.13-.51-5.13-.51v3.27c1.42,0,2.63.1,3.63.29,1,.2,1.82.49,2.46.87s1.11.86,1.41,1.42.45,1.2.45,1.93v5.7h-8.88v3.27h63.95c.75,0,1.45-.14,2.11-.41s1.23-.65,1.72-1.13.88-1.04,1.16-1.68.42-1.34.42-2.07v-11.44h-3.28v11.44ZM66.32,161.44h-8.4v-6c0-.6.11-1.15.33-1.67s.52-.96.9-1.34.82-.68,1.34-.89c.51-.21,1.05-.32,1.63-.32s1.13.11,1.65.32c.51.21.96.5,1.34.87.38.37.68.8.9,1.3s.33,1.04.33,1.62v6.1Z"/>
      <path class="cls-2" d="M114.54,170.41c-.09-.08-.16-.19-.22-.32s-.1-.28-.14-.44c-.03-.16-.05-.33-.05-.5,0-.26.09-.51.27-.73.18-.22.47-.34.86-.35h1.37v-1.64h-1.41c-.5.01-.92.1-1.27.25-.35.16-.63.36-.84.61-.21.25-.37.54-.47.86-.1.32-.15.65-.15,1,0,.46.09.92.28,1.38h-.85v1.64h5.32v-1.64h-2.45c-.09,0-.18-.04-.27-.12Z"/>
      <path class="cls-2" d="M132.64,159.35c0,.29-.05.56-.16.81-.11.25-.26.48-.45.67s-.41.34-.67.45-.53.16-.82.16h-3.41v-19.98h-3.28v19.98h-7.21v-13.48h-3.28v13.48h-3.11v3.27h20.3c.74,0,1.43-.14,2.09-.42s1.23-.67,1.71-1.15c.48-.48.87-1.05,1.15-1.7.28-.65.42-1.34.42-2.08v-17.88h-3.28v17.88Z"/>
      <path class="cls-2" d="M186.11,143.61c-.09-.08-.16-.19-.22-.32-.06-.13-.1-.28-.14-.44-.03-.16-.05-.33-.05-.5,0-.26.09-.51.27-.73.18-.22.47-.34.86-.35h1.37v-1.64h-1.41c-.5.01-.92.1-1.27.25-.35.16-.63.36-.84.61-.21.25-.37.54-.47.86-.1.32-.15.65-.15,1,0,.46.09.92.28,1.38h-.85v1.64h5.32v-1.64h-2.45c-.09,0-.18-.04-.27-.12Z"/>
      <path class="cls-2" d="M184.75,159.33c0,.3-.05.58-.16.83s-.26.48-.45.67-.41.34-.67.45-.53.16-.82.16h-5.36v-13.48h-3.28v13.48h-4.18v-13.48h-3.28v13.48h-4.18v-13.48h-3.28v15.67c0,.71-.15,1.34-.46,1.87-.31.54-.71.98-1.2,1.34s-1.06.62-1.7.8-1.29.27-1.94.27-1.32-.09-1.96-.27-1.21-.45-1.7-.8-.9-.8-1.2-1.34-.46-1.16-.46-1.87v-12.61h-3.28v12.61c0,1.27.24,2.37.73,3.31s1.14,1.73,1.94,2.36c.81.63,1.73,1.11,2.76,1.42s2.09.47,3.17.47c.99,0,1.96-.14,2.92-.41.96-.27,1.82-.68,2.6-1.22s1.43-1.22,1.97-2.03c.54-.81.87-1.75,1.01-2.83h20.37c.74,0,1.43-.14,2.09-.42.65-.28,1.22-.67,1.72-1.15.49-.48.88-1.05,1.16-1.7.29-.65.43-1.35.43-2.1v-11.37h-3.28v11.37Z"/>
      <rect class="cls-2" x="192.46" y="141.46" width="3.28" height="23.24"/>
      <path class="cls-2" d="M213.47,151.83c-.33-.56-.73-1.08-1.19-1.55-.47-.47-.98-.88-1.54-1.22-.56-.34-1.16-.6-1.81-.79s-1.32-.29-2.02-.29c-1.04,0-2.02.2-2.94.61-.92.41-1.72.96-2.4,1.66-.68.7-1.22,1.51-1.62,2.45-.4.94-.6,1.94-.6,3.01v3.69c0,.74.14,1.43.42,2.07.28.65.67,1.21,1.15,1.68.48.48,1.05.86,1.69,1.13.65.28,1.33.41,2.06.41h6.41c-.12.47-.3.9-.56,1.3-.26.39-.57.73-.93,1.02s-.77.51-1.23.67c-.46.16-.93.24-1.43.24h-5.15v3.27h5.15c1.04,0,2.02-.2,2.94-.6s1.72-.93,2.4-1.61,1.22-1.48,1.62-2.4c.4-.92.6-1.9.6-2.93v-8.03c0-.68-.09-1.34-.27-1.99s-.43-1.25-.76-1.81ZM211.21,161.44h-6.53c-.28,0-.54-.05-.79-.16s-.46-.26-.65-.44-.33-.4-.44-.65-.16-.51-.16-.79v-3.7c0-.62.11-1.2.34-1.75.22-.54.53-1.01.92-1.42.39-.4.84-.72,1.36-.95s1.07-.35,1.66-.35,1.14.12,1.67.35.98.55,1.37.95c.39.4.7.86.92,1.39s.34,1.09.34,1.68v5.82Z"/>
      <path class="cls-2" d="M221.03,147.96v15.07c-.01.66-.17,1.3-.48,1.94-.14.28-.31.56-.52.86s-.47.59-.79.89-.7.59-1.13.87-.94.54-1.53.79l1.26,3.02c.85-.36,1.6-.75,2.23-1.19.63-.44,1.18-.89,1.65-1.36s.85-.94,1.16-1.42c.31-.48.56-.94.75-1.37.45-1.04.68-2.09.69-3.16v-14.93h-3.28Z"/>
    </g>
    <g>
      <path class="cls-1" d="M17.82,191.01c-.1-1.21-.17-1.93-.2-2.16-.08-.76-.28-1.38-.6-1.85-.42-.65-1.04-1.05-1.86-1.21.66-.22,1.2-.55,1.64-.97.83-.81,1.25-1.87,1.25-3.2,0-1.72-.68-3.01-2.05-3.86-.79-.5-1.9-.74-3.33-.74h-7.73v16.92h2.23v-7.32h4.45c1.28,0,2.19.17,2.71.52.76.5,1.19,1.66,1.28,3.48.07,1.48.15,2.36.23,2.64.09.31.18.54.29.68h2.56l-.22-.24c-.31-.34-.53-1.24-.66-2.69ZM13.65,184.65c-.54.11-1.29.17-2.27.17h-4.21v-5.85h4.8c.58,0,1.08.04,1.51.11.64.1,1.15.33,1.52.69.53.51.79,1.19.79,2.07,0,.75-.17,1.35-.52,1.82-.38.52-.93.85-1.63,1Z"/>
      <path class="cls-1" d="M31.12,191.67v-6.12c0-.81-.01-1.28-.04-1.42-.11-.69-.37-1.22-.77-1.61-.82-.81-2.1-1.21-3.82-1.21s-2.95.4-3.83,1.19c-.85.76-1.28,1.76-1.31,3.01h1.97c.08-.74.26-1.29.55-1.63.5-.58,1.32-.88,2.46-.88,1.83,0,2.75.71,2.75,2.14,0,.38-.08.69-.25.92-.25.35-.88.59-1.9.71-1.26.16-1.94.24-2.04.25-.7.11-1.27.26-1.73.44-1.54.62-2.31,1.73-2.31,3.34,0,1.12.39,2,1.18,2.65.68.56,1.6.84,2.75.84,1.82,0,3.3-.66,4.44-1.98,0,.49.12.88.32,1.16.32.44.8.66,1.43.66.47,0,.94-.08,1.42-.25v-1.57c-.19.09-.37.13-.54.13-.5,0-.74-.26-.74-.78ZM29.14,189.4c0,.45-.03.78-.08,1-.13.49-.47.94-1.03,1.37-.77.58-1.65.86-2.65.86-.78,0-1.36-.18-1.76-.53-.44-.38-.66-.87-.66-1.46,0-.76.34-1.31,1.03-1.64.46-.22,1.27-.4,2.45-.54.82-.1,1.38-.18,1.68-.25.39-.09.74-.23,1.03-.43v1.63Z"/>
      <path class="cls-1" d="M46.41,188.24c-.26.89-.55,2.04-.86,3.47-.33-1.58-.6-2.75-.8-3.52l-1.76-6.52h-2.23l-1.51,5.81c-.22.88-.54,2.29-.96,4.23-.37-1.53-.74-2.92-1.1-4.17l-1.69-5.87h-2.23l3.93,12.27h2.19l1.75-6.72c.24-.92.48-1.93.72-3.04.24,1.15.48,2.17.72,3.06l1.82,6.7h2.15l3.91-12.27h-2.11l-1.91,6.57Z"/>
      <path class="cls-1" d="M61.76,191.67v-6.12c0-.81-.01-1.28-.04-1.42-.11-.69-.37-1.22-.77-1.61-.82-.81-2.1-1.21-3.82-1.21s-2.95.4-3.83,1.19c-.85.76-1.28,1.76-1.31,3.01h1.97c.08-.74.26-1.29.55-1.63.5-.58,1.32-.88,2.46-.88,1.83,0,2.75.71,2.75,2.14,0,.38-.08.69-.25.92-.25.35-.88.59-1.9.71-1.26.16-1.94.24-2.04.25-.7.11-1.27.26-1.73.44-1.54.62-2.31,1.73-2.31,3.34,0,1.12.39,2,1.18,2.65.68.56,1.6.84,2.75.84,1.82,0,3.3-.66,4.44-1.98,0,.49.12.88.32,1.16.32.44.8.66,1.43.66.47,0,.94-.08,1.42-.25v-1.57c-.19.09-.37.13-.54.13-.5,0-.74-.26-.74-.78ZM59.78,189.4c0,.45-.03.78-.08,1-.13.49-.47.94-1.03,1.37-.77.58-1.65.86-2.65.86-.78,0-1.36-.18-1.76-.53-.44-.38-.66-.87-.66-1.46,0-.76.34-1.31,1.03-1.64.46-.22,1.27-.4,2.45-.54.82-.1,1.38-.18,1.68-.25.39-.09.74-.23,1.03-.43v1.63Z"/>
      <path class="cls-1" d="M75.96,186.41c-.23-1.66-.88-2.95-1.93-3.85-.98-.83-2.15-1.25-3.53-1.25-1.69,0-3.07.62-4.15,1.87-1.06,1.22-1.58,2.8-1.58,4.72,0,1.77.43,3.23,1.3,4.38,1.02,1.34,2.53,2.02,4.5,2.02,2.94,0,4.73-1.43,5.37-4.29h-1.98c-.17.52-.36.95-.58,1.3-.57.86-1.46,1.3-2.67,1.3-2.48,0-3.77-1.46-3.87-4.38h9.22c0-.7-.02-1.3-.1-1.81ZM66.86,186.67c.12-.93.38-1.68.77-2.26.63-.94,1.57-1.4,2.81-1.4s2.26.52,2.92,1.56c.35.56.56,1.26.62,2.1h-7.12Z"/>
      <path class="cls-1" d="M86.89,187.98c-.69-.5-1.88-.94-3.59-1.32-.78-.18-1.42-.34-1.92-.49-.43-.13-.78-.32-1.03-.56-.21-.22-.31-.51-.31-.88,0-.57.24-1,.71-1.3.44-.28,1.04-.42,1.8-.42,1.22,0,2.06.33,2.55.98.22.29.36.71.43,1.26h2.03c-.08-1.05-.37-1.86-.86-2.44-.86-1-2.21-1.5-4.05-1.5-1.19,0-2.18.22-2.95.67-1.14.66-1.72,1.64-1.72,2.94,0,1.42.77,2.39,2.31,2.92.28.1,1.15.32,2.61.67.54.13,1.02.26,1.45.4.47.14.86.34,1.16.6.31.26.47.61.47,1.07s-.16.83-.47,1.16c-.54.58-1.38.86-2.53.86-1.26,0-2.18-.33-2.74-1-.29-.35-.47-.87-.55-1.55h-1.98c.05,1.15.39,2.07,1.02,2.76.9.98,2.32,1.48,4.24,1.48s3.28-.51,4.18-1.52c.61-.69.91-1.49.91-2.4,0-1.04-.38-1.84-1.15-2.4Z"/>
      <path class="cls-1" d="M107.72,191.01c-.1-1.21-.17-1.93-.2-2.16-.08-.76-.28-1.38-.6-1.85-.42-.65-1.04-1.05-1.86-1.21.66-.22,1.2-.55,1.64-.97.83-.81,1.25-1.87,1.25-3.2,0-1.72-.68-3.01-2.05-3.86-.79-.5-1.9-.74-3.33-.74h-7.73v16.92h2.23v-7.32h4.45c1.28,0,2.19.17,2.71.52.76.5,1.19,1.66,1.28,3.48.07,1.48.15,2.36.23,2.64.09.31.18.54.29.68h2.56l-.22-.24c-.31-.34-.53-1.24-.66-2.69ZM103.55,184.65c-.54.11-1.29.17-2.27.17h-4.21v-5.85h4.8c.58,0,1.08.04,1.51.11.64.1,1.15.33,1.52.69.53.51.79,1.19.79,2.07,0,.75-.17,1.35-.52,1.82-.38.52-.93.85-1.63,1Z"/>
      <path class="cls-1" d="M122.21,186.41c-.23-1.66-.88-2.95-1.93-3.85-.98-.83-2.15-1.25-3.53-1.25-1.69,0-3.07.62-4.15,1.87-1.06,1.22-1.58,2.8-1.58,4.72,0,1.77.43,3.23,1.3,4.38,1.02,1.34,2.53,2.02,4.5,2.02,2.94,0,4.73-1.43,5.37-4.29h-1.98c-.17.52-.36.95-.58,1.3-.57.86-1.46,1.3-2.67,1.3-2.48,0-3.77-1.46-3.87-4.38h9.22c0-.7-.02-1.3-.1-1.81ZM113.11,186.67c.12-.93.38-1.68.77-2.26.63-.94,1.57-1.4,2.81-1.4s2.26.52,2.92,1.56c.35.56.56,1.26.62,2.1h-7.12Z"/>
      <path class="cls-1" d="M132.98,191.07c-.62,1.02-1.56,1.54-2.82,1.54s-2.22-.51-2.89-1.54c-.54-.83-.82-1.92-.82-3.25,0-1.26.27-2.33.8-3.18.67-1.09,1.68-1.63,3.01-1.63,1,0,1.8.33,2.39,1,.37.42.62.97.76,1.67h2.09c-.13-1.06-.47-1.93-1.02-2.62-.94-1.16-2.34-1.74-4.2-1.74-1.64,0-3,.52-4.08,1.57-1.21,1.18-1.81,2.89-1.81,5.1,0,1.69.42,3.1,1.27,4.23,1.05,1.39,2.57,2.09,4.55,2.09,1.78,0,3.18-.63,4.19-1.88.62-.78,1.02-1.76,1.18-2.94h-2.05c-.1.62-.28,1.16-.54,1.6Z"/>
      <path class="cls-1" d="M140.12,184.23v-2.56h-1.87v12.27h2.02v-4.77c0-.95.03-1.69.1-2.22.13-1.07.48-1.91,1.07-2.51.7-.71,1.58-1.07,2.67-1.07.13,0,.34.01.64.04v-2.1c-.84,0-1.54.11-2.11.34-1.06.42-1.89,1.28-2.5,2.58Z"/>
      <path class="cls-1" d="M154.57,187.6c0,1.53-.16,2.59-.47,3.18-.63,1.22-1.62,1.82-2.97,1.82-1.03,0-1.76-.34-2.17-1.03-.26-.42-.38-1.32-.38-2.68v-7.23h-2.02v7.96c0,1.55.26,2.66.79,3.33.71.9,1.78,1.34,3.21,1.34,1.75,0,3.14-.76,4.15-2.28v1.92h1.87v-12.27h-2.02v5.93Z"/>
      <rect class="cls-1" x="160.34" y="181.67" width="2.02" height="12.27"/>
      <path class="cls-1" d="M162.13,178.14c-.1-.11-.23-.19-.37-.25s-.29-.09-.45-.09-.31.03-.45.09-.26.14-.37.25c-.11.11-.19.23-.25.37s-.09.29-.09.45.03.31.09.45.14.26.25.37.23.19.37.25.29.09.45.09c.32,0,.59-.11.82-.34.22-.22.34-.5.34-.82,0-.16-.03-.31-.09-.45s-.14-.26-.25-.37Z"/>
      <path class="cls-1" d="M168.31,178.03h-2.02v3.64h-2.06v1.66h2.06v6.11c0,1.31.01,2.15.04,2.5.04.55.15.97.32,1.25.39.64,1.24.96,2.55.96.51,0,1.02-.03,1.54-.1v-1.74c-.37.1-.72.16-1.07.16-.62,0-1.01-.14-1.18-.43-.12-.2-.18-.69-.18-1.46v-7.24h2.43v-1.66h-2.43v-3.64Z"/>
      <path class="cls-1" d="M186.8,181.31c-1.69,0-3.05.72-4.07,2.16-.22-.51-.46-.91-.72-1.19-.64-.65-1.53-.97-2.68-.97-.95,0-1.8.23-2.55.7-.46.3-.96.78-1.48,1.44v-1.78h-1.87v12.27h2.02v-6.5c0-.68.03-1.22.08-1.61.14-.9.5-1.6,1.1-2.1.58-.49,1.28-.73,2.1-.73s1.39.24,1.79.71c.34.39.5,1.18.5,2.35v7.88h2.02v-6.5c0-.78.02-1.34.06-1.69.1-.87.45-1.56,1.07-2.08.54-.45,1.21-.67,2-.67,1.14,0,1.87.4,2.21,1.19.15.36.23,1.03.23,2.02v7.73h2.02v-8.46c0-1.16-.2-2.04-.6-2.64-.68-1.02-1.76-1.52-3.24-1.52Z"/>
      <path class="cls-1" d="M204.72,186.41c-.23-1.66-.88-2.95-1.93-3.85-.98-.83-2.15-1.25-3.53-1.25-1.69,0-3.07.62-4.15,1.87-1.06,1.22-1.58,2.8-1.58,4.72,0,1.77.43,3.23,1.3,4.38,1.02,1.34,2.53,2.02,4.5,2.02,2.94,0,4.73-1.43,5.37-4.29h-1.98c-.17.52-.36.95-.58,1.3-.57.86-1.46,1.3-2.67,1.3-2.48,0-3.77-1.46-3.87-4.38h9.22c0-.7-.02-1.3-.1-1.81ZM195.62,186.67c.12-.93.38-1.68.77-2.26.63-.94,1.57-1.4,2.81-1.4s2.26.52,2.92,1.56c.35.56.56,1.26.62,2.1h-7.12Z"/>
      <path class="cls-1" d="M216.7,182.16c-.74-.57-1.67-.85-2.8-.85-1.33,0-2.44.37-3.33,1.1-.3.25-.65.64-1.03,1.16v-1.91h-1.87v12.27h2.02v-5.94c0-.92.04-1.62.12-2.09.13-.78.42-1.42.89-1.9.66-.67,1.52-1.01,2.58-1.01.81,0,1.45.2,1.93.6.36.3.6.74.71,1.32.06.34.1.94.1,1.8v7.22h2.02v-7.92c0-.73-.03-1.26-.08-1.61-.14-.97-.56-1.72-1.25-2.25Z"/>
      <path class="cls-1" d="M226.34,183.33v-1.66h-2.43v-3.64h-2.02v3.64h-2.06v1.66h2.06v6.11c0,1.31.01,2.15.04,2.5.04.55.15.97.32,1.25.39.64,1.24.96,2.55.96.51,0,1.02-.03,1.54-.1v-1.74c-.37.1-.72.16-1.07.16-.62,0-1.01-.14-1.18-.43-.12-.2-.18-.69-.18-1.46v-7.24h2.43Z"/>
    </g>
  </g>
  <g>
    <path class="cls-3" d="M113.39,133.12c-34.23.25-64.38-27.52-64.51-64.39-.12-33.98,27.08-64.33,64.43-64.49,35.66-.15,64.69,28.96,64.52,64.67-.17,36.1-29.49,64.35-64.44,64.21ZM105.33,76.86c4.84,1.02,9.71,1.43,14.56.26,12.37-2.98,20.69-10.58,23.85-22.86,3.1-12.05-.33-22.64-9.35-31.28-1.43-1.37-3.17-2.4-4.77-3.59.03-2.57.09-5.14.08-7.71-.02-2.5-.05-2.52-2.5-3.06-8.1-1.78-16.25-2.13-24.44-.61-16.69,3.1-30.07,11.49-39.86,25.36-9.36,13.26-12.69,28.07-10.56,44.13,1.1,8.25,3.83,15.92,8.19,23.01.18.37.32.77.55,1.11,14.56,21.45,34.8,31.07,60.52,28.23,14.49-1.6,26.79-8.28,36.82-18.94,3.01-3.2,5.83-6.56,7.75-10.58,1.03-1.21,1.73-2.63,2.41-4.04,5.39-11.07,7.47-22.68,5.99-34.96-.82-6.81-2.76-13.26-5.66-19.44-.22-.46-.26-1.17-1.11-1.22-.78,3.12-1.48,6.24-2.34,9.32-3.4,12.19-8.4,23.7-15.08,34.46-3.63-1.59-7.23-3.23-11.19-3.92-2.76-.48-5.35-.12-7.57,1.49-4.5,3.24-9.49,4.89-14.96,5.38-6.33.56-12.35-.37-18.02-3.32.87-.88,1.76-1.73,2.6-2.64,1.38-1.51,3.12-2.7,4.1-4.58Z"/>
    <path class="cls-4" d="M98.63,84.08c5.67,2.95,11.69,3.89,18.02,3.32,5.47-.49,10.47-2.14,14.96-5.38,2.22-1.6,4.82-1.96,7.57-1.49,3.96.68,7.56,2.32,11.19,3.92,6.6,3.96,11.87,9.24,15.78,15.88-1.91,4.02-4.74,7.38-7.75,10.58-10.02,10.66-22.32,17.33-36.82,18.94-25.72,2.84-45.97-6.78-60.52-28.23-.23-.34-.37-.74-.55-1.11.23-.34.47-.68.67-1.03,6.1-10.49,15.23-16.66,27.05-19.05,2.25-.46,4.23-.11,6.1,1.22,1.34.96,2.7,1.91,4.29,2.44Z"/>
    <path class="cls-4" d="M129.61,19.39c1.6,1.19,3.34,2.22,4.77,3.59,9.02,8.64,12.45,19.23,9.35,31.28-3.16,12.29-11.48,19.89-23.85,22.86-4.84,1.17-9.72.75-14.56-.26-.71-.22-1.43-.43-2.14-.67-11.44-3.95-21.07-14.41-21.25-29.25-.14-11.11,4.57-20.11,13.77-26.44,6.82-4.69,14.43-6.47,22.7-5.06,3.98.68,7.59,2.29,11.2,3.96Z"/>
    <path class="cls-2" d="M129.61,19.39c-3.61-1.66-7.22-3.28-11.2-3.96-8.27-1.41-15.88.37-22.7,5.06-9.2,6.33-13.91,15.33-13.77,26.44.18,14.84,9.81,25.3,21.25,29.25.7.24,1.42.45,2.14.67-.97,1.88-2.71,3.07-4.1,4.58-.83.91-1.73,1.76-2.6,2.64-1.59-.53-2.95-1.48-4.29-2.44-1.87-1.33-3.85-1.67-6.1-1.22-11.82,2.39-20.95,8.56-27.05,19.05-.21.36-.45.69-.67,1.03-4.35-7.09-7.09-14.77-8.19-23.01-2.14-16.06,1.2-30.87,10.56-44.13,9.79-13.86,23.17-22.26,39.86-25.36,8.19-1.52,16.33-1.18,24.44.61,2.45.54,2.48.56,2.5,3.06.02,2.57-.05,5.14-.08,7.71Z"/>
    <path class="cls-2" d="M166.16,100.34c-3.91-6.64-9.18-11.92-15.78-15.88,6.68-10.76,11.68-22.26,15.08-34.46.86-3.08,1.56-6.2,2.34-9.32.85.06.89.76,1.11,1.22,2.9,6.18,4.84,12.63,5.66,19.44,1.48,12.27-.6,23.89-5.99,34.96-.69,1.41-1.39,2.83-2.41,4.04Z"/>
  </g>
</svg>